<svg height="512pt" viewBox="0 0 512.00047 512" width="512pt" xmlns="http://www.w3.org/2000/svg"><path d="m40.03125 502.101562-30.132812-30.132812c-9.9179692-9.914062-12.675782-24.929688-6.933594-37.726562l113.496094-252.9375c6.78125-15.105469 26.585937-18.746094 38.292968-7.039063l182.980469 182.980469c11.710937 11.710937 8.066406 31.515625-7.039063 38.292968l-252.941406 113.5c-12.792968 5.738282-27.804687 2.980469-37.722656-6.9375zm0 0" fill="#91d1e0"/><path d="m92.480469 234.746094-89.519531 199.5c-5.742188 12.792968-2.9804692 27.808594 6.9375 37.726562l30.132812 30.128906c9.914062 9.917969 24.929688 12.679688 37.722656 6.9375l106.734375-47.894531c-64.066406-41.742187-91.570312-142.460937-92.007812-226.398437zm0 0" fill="#6299c9"/><path d="m337.734375 357.246094-182.980469-182.980469c-11.707031-11.707031-31.511718-8.066406-38.292968 7.039063l-12.617188 28.117187 198.734375 198.734375 28.117187-12.617188c15.105469-6.777343 18.746094-26.585937 7.039063-38.292968zm0 0" fill="#e889c2"/><path d="m90.800781 445.46875c-9.109375-9.109375-25.769531-7.222656-37.207031 4.214844-11.4375 11.441406-13.328125 28.097656-4.21875 37.207031s25.765625 7.21875 37.207031-4.21875c11.4375-11.4375 13.324219-28.09375 4.21875-37.203125zm0 0" fill="#fff"/><path d="m161.648438 374.628906c9.109374 9.109375 25.765624 7.222656 37.207031-4.21875 11.4375-11.4375 13.324219-28.09375 4.214843-37.203125-9.109374-9.109375-25.765624-7.222656-37.203124 4.21875-11.441407 11.4375-13.328126 28.09375-4.21875 37.203125zm0 0" fill="#fff"/><path d="m54.078125 450.742188c-1.917969 0-3.839844-.730469-5.300781-2.195313l-8.890625-8.890625c-2.929688-2.929688-2.929688-7.675781 0-10.605469 2.929687-2.929687 7.675781-2.929687 10.605469 0l8.890624 8.890625c2.925782 2.925782 2.925782 7.675782 0 10.605469-1.464843 1.464844-3.386718 2.195313-5.304687 2.195313zm0 0" fill="#4c5969"/><path d="m130.25 380.675781c-10.320312-10.320312-18.765625-3.8125-27.988281 5.410157-9.222657 9.222656-15.730469 17.667968-5.410157 27.988281 10.320313 10.320312 26.160157 11.210937 35.386719 1.988281 9.222657-9.222656 8.332031-25.066406-1.988281-35.386719zm0 0" fill="#4c5969"/><path d="m159.417969 345.402344c-1.917969 0-3.839844-.730469-5.304688-2.195313l-8.890625-8.890625c-2.925781-2.929687-2.925781-7.679687 0-10.605468 2.929688-2.929688 7.679688-2.929688 10.609375 0l8.890625 8.890624c2.929688 2.929688 2.925782 7.675782 0 10.605469-1.464844 1.464844-3.386718 2.195313-5.304687 2.195313zm0 0" fill="#4c5969"/><path d="m410.695312 321.308594c-14.710937 0-28.542968-5.726563-38.945312-16.128906-5.402344-5.40625-5.402344-14.167969 0-19.570313 5.40625-5.40625 14.167969-5.40625 19.574219 0 10.679687 10.679687 28.058593 10.679687 38.742187 0 10.398438-10.402344 24.230469-16.132813 38.941406-16.132813 14.707032 0 28.539063 5.730469 38.941407 16.132813 5.402343 5.402344 5.402343 14.164063 0 19.570313-5.40625 5.402343-14.167969 5.402343-19.574219 0-5.171875-5.175782-12.050781-8.023438-19.367188-8.023438-7.316406 0-14.199218 2.847656-19.371093 8.023438-10.402344 10.402343-24.234375 16.128906-38.941407 16.128906zm0 0" fill="#fde77c"/><path d="m430.066406 285.609375c-10.683594 10.683594-28.0625 10.683594-38.742187 0-5.40625-5.40625-14.167969-5.40625-19.574219 0-5.402344 5.40625-5.402344 14.164063 0 19.570313 10.402344 10.402343 24.234375 16.128906 38.945312 16.128906 11.527344 0 22.507813-3.53125 31.730469-10.0625-8.519531-8.140625-10.394531-19.898438-8.722656-28.957032-1.25 1.050782-2.46875 2.152344-3.636719 3.320313zm0 0" fill="#fab25f"/><path d="m198.25 156.828125c-3.542969 0-7.085938-1.351563-9.785156-4.054687-5.40625-5.40625-5.40625-14.164063 0-19.570313 10.679687-10.679687 10.679687-28.058594 0-38.742187-10.402344-10.402344-16.132813-24.230469-16.132813-38.941407 0-14.707031 5.730469-28.539062 16.132813-38.941406 5.402344-5.402344 14.164062-5.402344 19.570312 0 5.402344 5.40625 5.402344 14.167969 0 19.570313-10.683594 10.683593-10.683594 28.0625 0 38.742187 21.472656 21.472656 21.472656 56.410156 0 77.882813-2.703125 2.703124-6.246094 4.054687-9.785156 4.054687zm0 0" fill="#7fd7c3"/><path d="m352.382812 159.152344c-7.644531 0-13.839843-6.195313-13.839843-13.839844 0-7.640625 6.195312-13.839844 13.839843-13.839844 15.105469 0 27.394532-12.289062 27.394532-27.394531 0-30.363281 24.703125-55.070313 55.070312-55.070313 7.644532 0 13.839844 6.195313 13.839844 13.839844 0 7.640625-6.195312 13.839844-13.839844 13.839844-15.105468 0-27.394531 12.289062-27.394531 27.390625 0 30.367187-24.703125 55.074219-55.070313 55.074219zm0 0" fill="#91d1e0"/><path d="m402.019531 127.921875c-9.734375-6.03125-17.445312-23.75-19.882812-39.785156-1.53125 5.046875-2.359375 10.398437-2.359375 15.941406 0 15.105469-12.289063 27.394531-27.394532 27.394531-7.644531 0-13.839843 6.199219-13.839843 13.839844 0 7.644531 6.195312 13.839844 13.839843 13.839844 21.828126 0 40.734376-12.769532 49.636719-31.230469zm0 0" fill="#6299c9"/><g fill="#e889c2"><path d="m268.113281 167.527344c10.363281-10.363282 27.160157-10.363282 37.523438 0 6.648437 6.644531 9.027343 15.941406 7.148437 24.488281 8.546875-1.882813 17.839844.5 24.488282 7.148437 10.359374 10.359376 10.359374 27.160157 0 37.519532-19.25 19.25-58.125 10.621094-71.855469 4.816406-.957031-.40625-1.714844-1.164062-2.117188-2.117188-5.804687-13.730468-14.4375-52.605468 4.8125-71.855468zm0 0"/><path d="m264.03125 76.929688c-10.363281-10.359376-10.363281-27.160157 0-37.523438 6.644531-6.644531 15.941406-9.027344 24.488281-7.144531-1.882812-8.546875.5-17.84375 7.148438-24.492188 10.359375-10.359375 27.160156-10.359375 37.523437 0 19.25 19.25 10.617188 58.128907 4.8125 71.855469-.40625.957031-1.164062 1.714844-2.121094 2.117188-13.726562 5.808593-52.601562 14.4375-71.851562-4.8125zm0 0"/><path d="m406.640625 186.605469c0-14.65625 11.878906-26.535157 26.53125-26.535157 9.402344 0 17.660156 4.890626 22.371094 12.265626 4.714843-7.375 12.972656-12.265626 22.371093-12.265626 14.65625 0 26.535157 11.878907 26.535157 26.535157 0 27.222656-33.59375 48.609375-47.40625 54.210937-.960938.390625-2.035157.390625-2.996094 0-13.8125-5.601562-47.40625-26.988281-47.40625-54.210937zm0 0"/></g><path d="m224.003906 110.175781c-21.753906-13.484375-40.820312-49.441406-48.425781-73.355469-2.132813 5.917969-3.246094 12.222657-3.246094 18.699219 0 14.710938 5.730469 28.539063 16.132813 38.941407 10.679687 10.679687 10.679687 28.058593 0 38.742187-5.40625 5.402344-5.40625 14.164063 0 19.570313 2.699218 2.703124 6.242187 4.050781 9.785156 4.050781 3.539062 0 7.082031-1.347657 9.785156-4.050781 11.664063-11.664063 16.976563-27.300782 15.96875-42.597657zm0 0" fill="#52b9c7"/></svg>